<?xml version="1.0" encoding="UTF-8" standalone="no"?>
<!DOCTYPE svg PUBLIC "-//W3C//DTD SVG 1.1//EN" "http://www.w3.org/Graphics/SVG/1.1/DTD/svg11.dtd">
<svg width="100%" height="100%" viewBox="0 0 32 32" version="1.1" xmlns="http://www.w3.org/2000/svg" xmlns:xlink="http://www.w3.org/1999/xlink" xml:space="preserve" xmlns:serif="http://www.serif.com/" style="fill-rule:evenodd;clip-rule:evenodd;stroke-linejoin:round;stroke-miterlimit:1.41421;">
    <g transform="matrix(1,0,0,1,-1698.25,-894.25)">
        <g transform="matrix(0.0447443,0,0,0.0447443,1696.82,892.818)">
            <path d="M544,32L224,32C118.4,32 32,118.4 32,224L32,544C32,649.6 118.4,736 224,736L544,736C649.6,736 736,649.6 736,544L736,224C736,118.4 649.6,32 544,32ZM672,544C672,614.4 614.4,672 544,672L224,672C153.6,672 96,614.4 96,544L96,224C96,153.6 153.6,96 224,96L544,96C614.4,96 672,153.6 672,224L672,544Z" style="fill:rgb(255,255,255);fill-rule:nonzero;"/>
            <path d="M409.6,224C393.6,220.8 377.6,220.8 361.6,224C275.2,236.8 214.4,320 227.2,406.4C233.6,448 256,486.4 291.2,512C320,531.2 352,544 387.2,544C393.6,544 403.2,544 409.6,540.8C451.2,534.4 489.6,512 515.2,476.8C540.8,441.6 550.4,400 544,358.4C534.4,288 480,233.6 409.6,224ZM464,438.4C448,457.6 425.6,473.6 400,476.8C348.8,483.2 297.6,448 291.2,396.8C281.6,345.6 320,294.4 371.2,288L396.8,288C438.4,294.4 470.4,326.4 476.8,368C483.2,393.6 476.8,419.2 464,438.4Z" style="fill:rgb(255,255,255);fill-rule:nonzero;"/>
            <path d="M537.6,185.6C531.2,192 528,198.4 528,208C528,217.6 531.2,224 537.6,230.4C544,236.8 553.6,240 560,240C569.6,240 576,236.8 582.4,230.4C588.8,224 592,214.4 592,208C592,198.4 588.8,192 582.4,185.6C569.6,172.8 550.4,172.8 537.6,185.6Z" style="fill:rgb(255,255,255);fill-rule:nonzero;"/>
        </g>
    </g>
</svg>
