<?xml version="1.0" encoding="UTF-8" standalone="no"?>
<!DOCTYPE svg PUBLIC "-//W3C//DTD SVG 1.1//EN" "http://www.w3.org/Graphics/SVG/1.1/DTD/svg11.dtd">
<svg width="100%" height="100%" viewBox="0 0 37 35" version="1.1" xmlns="http://www.w3.org/2000/svg" xmlns:xlink="http://www.w3.org/1999/xlink" xml:space="preserve" xmlns:serif="http://www.serif.com/" style="fill-rule:evenodd;clip-rule:evenodd;stroke-linejoin:round;stroke-miterlimit:1.41421;">
    <g transform="matrix(1,0,0,1,-1767.92,-892.786)">
        <g transform="matrix(0.0353043,0,0,0.0353043,1767.92,891.937)">
            <path d="M826.24,420.48C841.088,420.48 853.12,432.64 853.12,447.36C853.12,462.08 841.088,474.24 826.24,474.24L751.36,474.24L751.36,522.24L826.24,522.24C841.088,522.24 853.12,534.272 853.12,549.12C853.12,563.84 841.088,576 826.24,576L724.48,576C709.76,576 697.728,563.84 697.728,549.12L697.728,345.6C697.728,330.88 709.76,318.72 724.608,318.72L826.368,318.72C841.088,318.72 853.12,330.88 853.12,345.6C853.12,360.448 841.088,372.48 826.24,372.48L751.36,372.48L751.36,420.48L826.24,420.48ZM661.76,549.12C661.76,560.64 654.336,570.88 643.328,574.592C640.576,575.488 637.696,575.872 634.816,575.872C625.856,575.872 618.176,572.032 613.056,565.184L508.8,423.68L508.8,549.12C508.8,563.84 496.896,576 481.92,576C467.2,576 455.232,563.84 455.232,549.12L455.232,345.6C455.232,334.08 462.592,323.84 473.536,320.192C476.096,319.232 479.296,318.784 481.856,318.784C490.176,318.784 497.856,323.264 502.976,329.664L608,471.68L608,345.6C608,330.88 620.032,318.72 634.88,318.72C649.6,318.72 661.76,330.88 661.76,345.6L661.76,549.12ZM416.768,549.12C416.768,563.84 404.736,576 389.888,576C375.168,576 363.136,563.84 363.136,549.12L363.136,345.6C363.136,330.88 375.168,318.72 390.016,318.72C404.736,318.72 416.768,330.88 416.768,345.6L416.768,549.12ZM311.552,576L209.792,576C195.072,576 182.912,563.84 182.912,549.12L182.912,345.6C182.912,330.88 195.072,318.72 209.792,318.72C224.64,318.72 236.672,330.88 236.672,345.6L236.672,522.24L311.552,522.24C326.4,522.24 338.432,534.272 338.432,549.12C338.432,563.84 326.4,576 311.552,576ZM1024,439.68C1024,210.56 794.24,24.064 512,24.064C229.76,24.064 0,210.56 0,439.68C0,644.992 182.144,817.024 428.16,849.6C444.8,853.184 467.52,860.608 473.28,874.816C478.4,887.616 476.672,907.456 474.944,920.896L467.904,964.416C465.984,977.216 457.664,1014.98 512.704,991.936C567.744,968.896 807.744,817.856 915.264,694.336C988.8,613.76 1024,531.2 1024,439.68Z" style="fill:rgb(248,232,44);fill-rule:nonzero;"/>
        </g>
    </g>
</svg>
