<?xml version="1.0" encoding="UTF-8" standalone="no"?>
<!DOCTYPE svg PUBLIC "-//W3C//DTD SVG 1.1//EN" "http://www.w3.org/Graphics/SVG/1.1/DTD/svg11.dtd">
<svg width="100%" height="100%" viewBox="0 0 29 35" version="1.1" xmlns="http://www.w3.org/2000/svg" xmlns:xlink="http://www.w3.org/1999/xlink" xml:space="preserve" xmlns:serif="http://www.serif.com/" style="fill-rule:evenodd;clip-rule:evenodd;stroke-linejoin:round;stroke-miterlimit:1.41421;">
    <g transform="matrix(1,0,0,1,-1843.6,-892.588)">
        <g transform="matrix(0.0777328,0,0,0.0777328,1843.08,892.588)">
            <path d="M242.75,311L242.75,363.75C242.75,375 239.5,380.5 233,380.5C229.25,380.5 225.5,378.75 221.75,375L221.75,299.75C225.5,296 229.25,294.25 233,294.25C239.5,294.25 242.75,300 242.75,311ZM327.25,311.25L327.25,322.75L304.75,322.75L304.75,311.25C304.75,300 308.5,294.25 316,294.25C323.5,294.25 327.25,300 327.25,311.25ZM85.75,256.75L112.5,256.75L112.5,233.25L34.5,233.25L34.5,256.75L60.75,256.75L60.75,399L85.75,399L85.75,256.75ZM157.75,399L180,399L180,275.5L157.75,275.5L157.75,370C152.75,377 148,380.5 143.5,380.5C140.5,380.5 138.75,378.75 138.25,375.25C138,374.5 138,371.75 138,366.5L138,275.5L115.75,275.5L115.75,373.25C115.75,382 116.5,387.75 117.75,391.5C119.75,397.75 125,400.75 132.25,400.75C140.25,400.75 148.75,395.75 157.75,385.5L157.75,399ZM265,362L265,312.75C265,301.25 264.5,293 262.75,288C260,278.75 253.75,274 245,274C236.75,274 229,278.5 221.75,287.5L221.75,233.25L199.5,233.25L199.5,399L221.75,399L221.75,387C229.25,396.25 237,400.75 245,400.75C253.75,400.75 260,396 262.75,387C264.5,381.75 265,373.5 265,362ZM349.5,359.5L349.5,356.25L326.75,356.25C326.75,365.25 326.5,370.25 326.25,371.5C325,377.5 321.75,380.5 316.25,380.5C308.5,380.5 304.75,374.75 304.75,363.25L304.75,341.5L349.5,341.5L349.5,315.75C349.5,302.5 347.25,293 342.75,286.75C336.25,278.25 327.5,274 316.25,274C304.75,274 296,278.25 289.5,286.75C284.75,293 282.5,302.5 282.5,315.75L282.5,359C282.5,372.25 285,382 289.75,388C296.25,396.5 305,400.75 316.75,400.75C328.5,400.75 337.75,396.25 343.75,387.5C346.5,383.5 348.5,379 349,374C349.5,371.75 349.5,366.75 349.5,359.5ZM197.5,131.25L197.5,78.75C197.5,67.25 194.25,61.5 186.75,61.5C179.5,61.5 176,67.25 176,78.75L176,131.25C176,142.75 179.5,148.75 186.75,148.75C194.25,148.75 197.5,142.75 197.5,131.25ZM377.25,319C377.25,347.75 377,378.5 370.75,406.5C366,426.25 350,440.75 330.75,442.75C284.75,448 238.25,448 192,448C145.75,448 99.25,448 53.25,442.75C34,440.75 17.75,426.25 13.25,406.5C6.75,378.5 6.75,347.75 6.75,319C6.75,290 7,259.5 13.25,231.5C18,211.75 34,197.25 53.5,195C99.25,190 145.75,190 192,190C238.25,190 284.75,190 330.75,195C350,197.25 366.25,211.75 370.75,231.5C377.25,259.5 377.25,290 377.25,319ZM127.75,0L153.25,0L123,99.75L123,167.5L98,167.5L98,99.75C95.75,87.5 90.75,70 82.75,46.75C77.25,31.25 71.75,15.5 66.5,0L93,0L110.75,65.75L127.75,0ZM220.25,83.25L220.25,127C220.25,140.25 218,150.25 213.25,156.5C207,165 198.25,169.25 186.75,169.25C175.5,169.25 166.75,165 160.5,156.5C155.75,150 153.5,140.25 153.5,127L153.5,83.25C153.5,70 155.75,60.25 160.5,54C166.75,45.5 175.5,41.25 186.75,41.25C198.25,41.25 207,45.5 213.25,54C218,60.25 220.25,70 220.25,83.25ZM304,42.75L304,167.5L281.25,167.5L281.25,153.75C272.25,164.25 263.75,169.25 255.5,169.25C248.25,169.25 243,166.25 240.75,160C239.5,156.25 238.75,150.25 238.75,141.25L238.75,42.75L261.5,42.75L261.5,134.5C261.5,139.75 261.5,142.75 261.75,143.25C262.25,146.75 264,148.75 267,148.75C271.5,148.75 276.25,145.25 281.25,138L281.25,42.75L304,42.75Z" style="fill:rgb(248,232,44);fill-rule:nonzero;"/>
        </g>
    </g>
</svg>
